HIERARCHY
ROOT Hips
{
	OFFSET 0.00 0.00 0.00
	CHANNELS 6 Xposition Yposition Zposition Xrotation Yrotation Zrotation
	JOINT Spine
	{
		OFFSET 0.00000 7.50895 0.00000
		CHANNELS 3 Xrotation Yrotation Zrotation
		JOINT Head
		{
			OFFSET 0.00000 13.86115 0.00000
			CHANNELS 3 Xrotation Yrotation Zrotation
			End Site
			{
				OFFSET 0.00000 4.52755 0.00000
			}
		}
		JOINT LeftShoulder
		{
			OFFSET 0.00000 8.20478 0.00000
			CHANNELS 3 Xrotation Yrotation Zrotation
			JOINT LeftArm
			{
				OFFSET 6.63596 0.00000 0.00000
				CHANNELS 3 Xrotation Yrotation Zrotation
				JOINT LeftForeArm
				{
					OFFSET 10.27422 0.00000 0.00000
					CHANNELS 3 Yrotation Zrotation Xrotation
					JOINT LeftHand
					{
						OFFSET 8.52215 0.00000 0.00000
						CHANNELS 3 Xrotation Yrotation Zrotation
						JOINT LeftHandThumb1
						{
							OFFSET 0.00000 0.00000 0.00000
							CHANNELS 3 Xrotation Zrotation Yrotation
							End Site
							{
								OFFSET 0.00000 0.00000 3.93700
							}
						}
						End Site
						{
							OFFSET 3.93700 0.00000 0.00000
						}
					}
				}
			}
		}
		JOINT RightShoulder
		{
			OFFSET 0.00000 8.20478 0.00000
			CHANNELS 3 Xrotation Yrotation Zrotation
			JOINT RightArm
			{
				OFFSET -6.63596 0.00000 0.00000
				CHANNELS 3 Xrotation Yrotation Zrotation
				JOINT RightForeArm
				{
					OFFSET -10.27422 0.00000 0.00000
					CHANNELS 3 Yrotation Zrotation Xrotation
					JOINT RightHand
					{
						OFFSET -8.52215 0.00000 0.00000
						CHANNELS 3 Xrotation Yrotation Zrotation
						JOINT RightHandThumb1
						{
							OFFSET 0.00000 0.00000 0.00000
							CHANNELS 3 Xrotation Zrotation Yrotation
							End Site
							{
								OFFSET 0.00000 0.00000 3.93700
							}
						}
						End Site
						{
							OFFSET -3.93700 0.00000 0.00000
						}
					}
				}
			}
		}
	}
	JOINT LeftUpLeg
	{
		OFFSET 3.00056 0.00000 0.00000
		CHANNELS 3 Xrotation Yrotation Zrotation
		JOINT LeftLeg
		{
			OFFSET 0.00000 -16.49085 0.00000
			CHANNELS 3 Xrotation Yrotation Zrotation
			JOINT LeftFoot
			{
				OFFSET 0.00000 -14.55658 0.00000
				CHANNELS 3 Xrotation Yrotation Zrotation
				JOINT LeftToeBase
				{
					OFFSET 0.00000 -1.25038 4.66650
					CHANNELS 3 Xrotation Yrotation Zrotation
					End Site
					{
						OFFSET 0.00000 0.00000 2.95275
					}
				}
			}
		}
	}
	JOINT RightUpLeg
	{
		OFFSET -3.00056 0.00000 0.00000
		CHANNELS 3 Xrotation Yrotation Zrotation
		JOINT RightLeg
		{
			OFFSET 0.00000 -16.49085 0.00000
			CHANNELS 3 Xrotation Yrotation Zrotation
			JOINT RightFoot
			{
				OFFSET 0.00000 -14.55658 0.00000
				CHANNELS 3 Xrotation Yrotation Zrotation
				JOINT RightToeBase
				{
					OFFSET 0.00000 -1.25038 4.66650
					CHANNELS 3 Xrotation Yrotation Zrotation
					End Site
					{
						OFFSET 0.00000 0.00000 2.95275
					}
				}
			}
		}
	}
}
MOTION
Frames: 13
Frame Time: 0.008333
 -6.5609 32.8817 -4.6502 9.2057 6.0061 -1.8111 -10.9011 1.5014 0.1729 -8.4767 -3.1147 8.9202 9.3395 20.0757 26.4800 -33.7213 -0.7804 -30.9919 -14.9485 0.0000 15.1070 2.6106 30.7786 -5.0916 33.1476 -0.0000 26.2537 -23.8561 -7.5163 -36.4953 -0.3088 -6.7814 30.1021 16.7913 -0.0000 31.1719 2.8428 -12.0702 13.3587 32.8623 0.0000 -24.3270 -4.8472 4.1850 5.7420 -1.7705 -0.0000 -0.0000 -6.4481 10.7113 -14.3045 11.6196 -0.0000 -0.0000 -5.3394 -9.7283 -2.6378 2.2389 0.0000 -0.0000 -8.1360 -0.2580 -15.2788 -0.4004 0.0000 -0.0000
 -6.5589 32.8814 -4.6496 9.2070 5.9987 -1.8068 -10.9090 1.4996 0.1825 -8.4667 -3.1124 8.9202 9.3462 20.0718 26.4849 -33.7808 -0.7784 -30.9997 -14.9596 0.0000 15.1889 2.5850 30.7833 -5.0413 33.1476 -0.0000 26.2537 -23.8702 -7.5119 -36.4924 -0.2739 -6.7578 30.0980 16.8122 -0.0000 31.1798 2.8483 -12.0849 13.3680 32.8623 0.0000 -24.3270 -4.8455 4.1904 5.7354 -1.7749 -0.0000 -0.0000 -6.4242 10.7011 -14.3866 11.4893 -0.0000 0.0000 -5.3291 -9.7263 -2.6417 2.2109 0.0000 0.0000 -8.1121 -0.2583 -15.3321 -0.4473 0.0000 -0.0000
 -6.5580 32.8809 -4.6499 9.2084 5.9870 -1.7966 -10.9026 1.4881 0.1768 -8.4920 -3.1078 8.9384 9.3015 20.0566 26.4889 -33.7762 -0.8118 -30.9733 -14.9204 0.0000 15.2473 2.5260 30.7665 -4.9290 33.1476 -0.0000 26.2537 -23.8769 -7.5332 -36.4709 -0.2774 -6.7070 30.0886 16.8117 -0.0000 31.1921 2.8424 -12.0718 13.3550 32.8623 0.0000 -24.3270 -4.8453 4.1988 5.7239 -1.7719 -0.0000 0.0000 -6.4583 10.7106 -14.3207 11.5998 0.0000 -0.0000 -5.3375 -9.6956 -2.6535 2.2204 0.0000 -0.0000 -8.1356 -0.2746 -15.3148 -0.4029 -0.0000 0.0000
 -6.5565 32.8809 -4.6486 9.2058 5.9784 -1.7928 -10.9082 1.4768 0.1946 -8.4765 -3.0993 8.9190 9.3100 20.0471 26.4928 -33.9194 -0.6910 -30.9862 -15.0323 0.0000 15.3325 2.5955 30.8519 -5.0516 33.1476 -0.0000 26.2537 -23.8907 -7.5086 -36.4682 -0.2499 -6.7090 30.0792 16.8510 -0.0000 31.2271 2.8526 -12.0975 13.3741 32.8623 0.0000 -24.3270 -4.8337 4.1822 5.7192 -1.7821 -0.0000 -0.0000 -6.4272 10.7351 -14.4109 11.5123 -0.0000 0.0000 -5.3280 -9.6969 -2.6567 2.2057 0.0000 0.0000 -8.1293 -0.2642 -15.3108 -0.3741 -0.0000 -0.0000
 -6.5551 32.8807 -4.6478 9.2043 5.9662 -1.7858 -10.9127 1.4710 0.2010 -8.4645 -3.0909 8.9166 9.2638 20.0090 26.5252 -33.9038 -0.6514 -30.9834 -15.0801 0.0000 15.3123 2.6710 30.9748 -5.1794 33.1476 -0.0000 26.2537 -23.9033 -7.4892 -36.4893 -0.2265 -6.7339 30.1136 16.9047 -0.0000 31.2969 2.8462 -12.0925 13.3503 32.8623 0.0000 -24.3270 -4.8283 4.1890 5.7117 -1.7783 -0.0000 0.0000 -6.4474 10.7406 -14.3321 11.5144 0.0000 -0.0000 -5.3211 -9.6823 -2.6624 2.1923 0.0000 0.0000 -8.1253 -0.2725 -15.3446 -0.3739 -0.0000 0.0000
 -6.5537 32.8806 -4.6472 9.2041 5.9511 -1.7804 -10.9172 1.4566 0.2088 -8.4558 -3.0853 8.9251 9.2531 20.0113 26.5351 -33.9527 -0.6225 -30.9868 -15.1152 0.0000 15.3509 2.6329 30.9504 -5.1096 33.1476 -0.0000 26.2537 -23.8877 -7.4948 -36.5024 -0.2523 -6.7063 30.1398 16.8925 -0.0000 31.3009 2.8445 -12.0968 13.3385 32.8623 0.0000 -24.3270 -4.8252 4.1971 5.7053 -1.7748 0.0000 0.0000 -6.4707 10.7493 -14.2870 11.6288 -0.0000 0.0000 -5.3208 -9.6722 -2.6689 2.1865 0.0000 -0.0000 -8.1170 -0.2683 -15.3127 -0.4309 0.0000 -0.0000
 -6.5530 32.8804 -4.6465 9.1960 5.9406 -1.7777 -10.9136 1.4515 0.2214 -8.4427 -3.0870 8.9205 9.2202 19.9705 26.5567 -33.9352 -0.5967 -30.9762 -15.1432 0.0000 15.3843 2.6097 30.8971 -5.0724 33.1476 -0.0000 26.2537 -23.8866 -7.4968 -36.4853 -0.2532 -6.7041 30.1172 16.9324 -0.0000 31.2842 2.8574 -12.1448 13.3463 32.8623 0.0000 -24.3270 -4.8189 4.2127 5.7032 -1.7725 -0.0000 -0.0000 -6.4461 10.7368 -14.3685 11.5037 -0.0000 0.0000 -5.3106 -9.6775 -2.6713 2.1789 -0.0000 0.0000 -8.1251 -0.2428 -15.3115 -0.3796 -0.0000 0.0000
 -6.5520 32.8805 -4.6458 9.1937 5.9275 -1.7714 -10.9167 1.4349 0.2268 -8.4300 -3.0935 8.9127 9.2065 19.9651 26.5424 -33.9602 -0.6186 -30.9372 -15.1402 0.0000 15.3689 2.6346 30.9596 -5.1113 33.1476 -0.0000 26.2537 -23.8789 -7.5002 -36.4609 -0.2709 -6.6639 30.0891 16.9051 -0.0000 31.2503 2.8530 -12.1218 13.3507 32.8623 0.0000 -24.3270 -4.8054 4.1743 5.6987 -1.7767 0.0000 -0.0000 -6.4461 10.7751 -14.3792 11.5469 -0.0000 0.0000 -5.3104 -9.6750 -2.6773 2.1803 0.0000 -0.0000 -8.1131 -0.2396 -15.3432 -0.4297 0.0000 -0.0000
 -6.5509 32.8805 -4.6450 9.1923 5.9178 -1.7554 -10.9204 1.4426 0.2186 -8.4209 -3.1131 8.9152 9.1756 19.9195 26.5656 -33.9504 -0.6011 -30.9212 -15.1601 0.0000 15.4037 2.5988 30.9478 -5.0438 33.1476 -0.0000 26.2537 -23.8711 -7.5263 -36.4699 -0.2842 -6.6531 30.1009 16.9163 -0.0000 31.2573 2.8477 -12.1274 13.3208 32.8623 0.0000 -24.3270 -4.8032 4.1801 5.6810 -1.7679 -0.0000 -0.0000 -6.4646 10.7812 -14.3040 11.5811 0.0000 -0.0000 -5.3125 -9.6763 -2.6950 2.1811 0.0000 0.0000 -8.1193 -0.2312 -15.3458 -0.4469 -0.0000 -0.0000
 -6.5492 32.8804 -4.6451 9.2010 5.9042 -1.7498 -10.9346 1.4316 0.2258 -8.4179 -3.1258 8.9091 9.1746 19.9334 26.5738 -33.9963 -0.5895 -30.9325 -15.1773 0.0000 15.4367 2.5537 30.8455 -4.9714 33.1476 -0.0000 26.2537 -23.8851 -7.5148 -36.4949 -0.2669 -6.6323 30.1275 16.9011 -0.0000 31.2701 2.8361 -12.1083 13.2884 32.8623 0.0000 -24.3270 -4.8123 4.1806 5.6747 -1.7616 -0.0000 0.0000 -6.4685 10.7852 -14.3042 11.5741 0.0000 -0.0000 -5.3205 -9.6765 -2.7043 2.1721 -0.0000 -0.0000 -8.1171 -0.2103 -15.3232 -0.4322 -0.0000 0.0000
 -6.5486 32.8804 -4.6443 9.2001 5.8894 -1.7459 -10.9385 1.4246 0.2282 -8.4069 -3.1498 8.9145 9.1650 19.9312 26.5934 -33.9869 -0.6122 -30.9323 -15.1687 0.0000 15.3853 2.4913 30.8361 -4.8517 33.1476 -0.0000 26.2537 -23.8806 -7.5169 -36.4980 -0.2623 -6.6248 30.1369 16.9121 -0.0000 31.2744 2.8356 -12.1059 13.2884 32.8623 0.0000 -24.3270 -4.8126 4.1950 5.6719 -1.7516 0.0000 -0.0000 -6.4777 10.7892 -14.2987 11.5557 0.0000 -0.0000 -5.3213 -9.6834 -2.7072 2.1752 -0.0000 0.0000 -8.1228 -0.1910 -15.3458 -0.4193 0.0000 -0.0000
 -6.5479 32.8803 -4.6439 9.2029 5.8797 -1.7379 -10.9461 1.4065 0.2202 -8.3986 -3.1722 8.9320 9.1402 19.9174 26.6115 -34.0091 -0.5888 -30.9152 -15.1888 0.0000 15.3647 2.4829 30.8386 -4.8351 33.1476 -0.0000 26.2537 -23.8735 -7.5094 -36.4875 -0.2683 -6.6325 30.1403 16.9236 -0.0000 31.2939 2.8422 -12.1439 13.2789 32.8623 0.0000 -24.3270 -4.8124 4.1767 5.6648 -1.7522 0.0000 0.0000 -6.4540 10.8064 -14.3685 11.4122 -0.0000 -0.0000 -5.3213 -9.6776 -2.7156 2.1649 -0.0000 -0.0000 -8.1101 -0.1894 -15.3442 -0.4639 -0.0000 0.0000
 -6.5472 32.8802 -4.6432 9.2034 5.8688 -1.7350 -10.9496 1.3877 0.2210 -8.3930 -3.1887 8.9448 9.1544 19.9192 26.6109 -34.0913 -0.5408 -30.8974 -15.2249 0.0000 15.4090 2.5005 30.8813 -4.8632 33.1476 -0.0000 26.2537 -23.8880 -7.5020 -36.4922 -0.2632 -6.6227 30.1525 16.9222 -0.0000 31.3270 2.8389 -12.1385 13.2694 32.8623 0.0000 -24.3270 -4.8087 4.1821 5.6613 -1.7551 -0.0000 -0.0000 -6.4545 10.8167 -14.3959 11.4824 -0.0000 0.0000 -5.3233 -9.6758 -2.7190 2.1638 -0.0000 -0.0000 -8.1144 -0.1828 -15.3345 -0.4474 -0.0000 -0.0000
